<svg xmlns="http://www.w3.org/2000/svg" viewBox="0 0 880 400" width="880" height="400" role="img" aria-label="Repo views" font-family="'Segoe UI', system-ui, -apple-system, Helvetica, Arial, sans-serif">
<title>Repo views</title>
<style>@keyframes draw{from{stroke-dasharray:1;stroke-dashoffset:1}to{stroke-dasharray:1;stroke-dashoffset:0}}@keyframes fade{from{opacity:0}}.ln,.gw{animation:draw 2.2s ease-out .2s backwards}.fd{animation:fade 1.4s ease 1.2s backwards}@media (prefers-reduced-motion:reduce){.lwv{display:none}}@media (prefers-reduced-motion:reduce){*{animation:none!important}}</style>
<defs><linearGradient id="lg" x1="0" x2="1"><stop offset="0" stop-color="#38bdf8"/><stop offset="1" stop-color="#a78bfa"/></linearGradient><linearGradient id="ag" x1="0" x2="0" y1="0" y2="1"><stop offset="0" stop-color="#38bdf8" stop-opacity=".4"/><stop offset="1" stop-color="#a78bfa" stop-opacity="0"/></linearGradient><filter id="gw" x="-5%" y="-30%" width="110%" height="160%"><feGaussianBlur stdDeviation="4"/></filter><linearGradient id="wv" gradientUnits="userSpaceOnUse" x1="0" y1="0" x2="880" y2="0" gradientTransform="translate(-90,0)"><stop offset="0" stop-color="#fff" stop-opacity="0"/><stop offset=".04" stop-color="#fff" stop-opacity="0"/><stop offset=".08" stop-color="#fff" stop-opacity="1"/><stop offset=".086" stop-color="#fff" stop-opacity="0"/><stop offset="1" stop-color="#fff" stop-opacity="0"/><animateTransform attributeName="gradientTransform" type="translate" from="-90 0" to="970 0" dur="10s" begin="2.4s" repeatCount="indefinite"/></linearGradient></defs>
<rect x=".5" y=".5" width="879" height="399" rx="14" fill="#111826" stroke="#263042"/>
<text x="24" y="38" font-size="18" font-weight="700" fill="#e6edf3">Repo views</text>
<text x="24" y="59" font-size="13" fill="#8b949e">Daily page views from GitHub since Oct 1, 2026.</text>
<text x="856" y="38" font-size="12" fill="#8b949e" text-anchor="end">Updated 10 Oct 2026</text>
<rect x="24" y="78" width="204" height="70" rx="10" fill="none" stroke="#263042"/><text x="40" y="115" font-size="30" font-weight="700" fill="url(#lg)">647</text><text x="40" y="136" font-size="12" fill="#8b949e">Views (all time)</text><rect x="240" y="78" width="204" height="70" rx="10" fill="none" stroke="#263042"/><text x="256" y="115" font-size="30" font-weight="700" fill="url(#lg)">229</text><text x="256" y="136" font-size="12" fill="#8b949e">Best day: 3 Oct 2026</text><line x1="58" x2="856" y1="355.0" y2="355.0" stroke="#46566e" stroke-width="1.2" stroke-dasharray="3 4"/><text x="50" y="359.0" font-size="11" fill="#8b949e" text-anchor="end">0</text><line x1="58" x2="856" y1="298.3" y2="298.3" stroke="#46566e" stroke-width="1.2" stroke-dasharray="3 4"/><text x="50" y="302.3" font-size="11" fill="#8b949e" text-anchor="end">100</text><line x1="58" x2="856" y1="241.7" y2="241.7" stroke="#46566e" stroke-width="1.2" stroke-dasharray="3 4"/><text x="50" y="245.7" font-size="11" fill="#8b949e" text-anchor="end">200</text><line x1="58" x2="856" y1="185.0" y2="185.0" stroke="#46566e" stroke-width="1.2" stroke-dasharray="3 4"/><text x="50" y="189.0" font-size="11" fill="#8b949e" text-anchor="end">300</text><text x="58.0" y="386" font-size="11" fill="#8b949e" text-anchor="middle">Oct</text><path class="fd" d="M58.0,355.0C107.9,355.0 107.9,353.9 157.8,353.9C207.6,353.9 207.6,225.2 257.5,225.2C307.4,225.2 307.4,237.1 357.2,237.1C407.1,237.1 407.1,297.2 457.0,297.2C506.9,297.2 506.9,345.9 556.8,345.9C606.6,345.9 606.6,352.2 656.5,352.2C706.4,352.2 706.4,313.1 756.2,313.1C806.1,313.1 806.1,348.8 856.0,348.8L856.0,355.0L58.0,355.0Z" fill="url(#ag)"/><path class="gw" d="M58.0,355.0C107.9,355.0 107.9,353.9 157.8,353.9C207.6,353.9 207.6,225.2 257.5,225.2C307.4,225.2 307.4,237.1 357.2,237.1C407.1,237.1 407.1,297.2 457.0,297.2C506.9,297.2 506.9,345.9 556.8,345.9C606.6,345.9 606.6,352.2 656.5,352.2C706.4,352.2 706.4,313.1 756.2,313.1C806.1,313.1 806.1,348.8 856.0,348.8" pathLength="1" fill="none" stroke="url(#lg)" stroke-width="7" stroke-opacity=".45" filter="url(#gw)"/><path class="ln" d="M58.0,355.0C107.9,355.0 107.9,353.9 157.8,353.9C207.6,353.9 207.6,225.2 257.5,225.2C307.4,225.2 307.4,237.1 357.2,237.1C407.1,237.1 407.1,297.2 457.0,297.2C506.9,297.2 506.9,345.9 556.8,345.9C606.6,345.9 606.6,352.2 656.5,352.2C706.4,352.2 706.4,313.1 756.2,313.1C806.1,313.1 806.1,348.8 856.0,348.8" pathLength="1" fill="none" stroke="url(#lg)" stroke-width="2.5" stroke-linejoin="round"/><path class="lwv" d="M58.0,355.0C107.9,355.0 107.9,353.9 157.8,353.9C207.6,353.9 207.6,225.2 257.5,225.2C307.4,225.2 307.4,237.1 357.2,237.1C407.1,237.1 407.1,297.2 457.0,297.2C506.9,297.2 506.9,345.9 556.8,345.9C606.6,345.9 606.6,352.2 656.5,352.2C706.4,352.2 706.4,313.1 756.2,313.1C806.1,313.1 806.1,348.8 856.0,348.8" fill="none" stroke="url(#wv)" stroke-width="5.5" stroke-linecap="round" filter="url(#gw)"/><path class="lwv" d="M58.0,355.0C107.9,355.0 107.9,353.9 157.8,353.9C207.6,353.9 207.6,225.2 257.5,225.2C307.4,225.2 307.4,237.1 357.2,237.1C407.1,237.1 407.1,297.2 457.0,297.2C506.9,297.2 506.9,345.9 556.8,345.9C606.6,345.9 606.6,352.2 656.5,352.2C706.4,352.2 706.4,313.1 756.2,313.1C806.1,313.1 806.1,348.8 856.0,348.8" fill="none" stroke="url(#wv)" stroke-width="2" stroke-linecap="round"/><circle class="fd" cx="856.0" cy="348.8" r="5" fill="#111826" stroke="#38bdf8" stroke-width="2"/>
</svg>
